# xmcd CD database file
#
# Track frame offsets:
#	150
#	24375
#	48825
#	73050
#
# Disc length: 1295 seconds
#
# Revision: 0
# Processed by: cddbd v1.5.1PL0 Copyright (c) Steve Scherf et al.
# Submitted via: CDex 1.51
#
DISCID=2c050d04
DTITLE=高乃麗（マリア・タチバナ）・富沢美知恵（神崎すみれ） - サクラ大戦TV挿入歌「赤いカチューシャ」・「センタースポット」
DYEAR=1900
DGENRE=アニメ
TTITLE0=高乃麗（マリア・タチバナ）/赤いカチューシャ
TTITLE1=富沢美知恵（神崎すみれ）/センタースポット
TTITLE2=田中公平/赤いカチューシャ（オリジナル・カラオケ）
TTITLE3=田中公平/センタースポット（オリジナル・カラオケ）
EXTD=
EXTT0=
EXTT1=
EXTT2=
EXTT3=
PLAYORDER=
